<?xml version="1.0" encoding="UTF-8"?>
<svg xmlns="http://www.w3.org/2000/svg" width="512" height="512" viewBox="0 0 512 512" role="img" aria-label="广西糖业产业链">
  <defs>
    <linearGradient id="bg" x1="0" y1="0" x2="1" y2="1">
      <stop offset="0" stop-color="#1fa15f"/>
      <stop offset="1" stop-color="#198754"/>
    </linearGradient>
    <filter id="shadow" x="-20%" y="-20%" width="140%" height="140%">
      <feDropShadow dx="0" dy="10" stdDeviation="12" flood-color="#000" flood-opacity="0.22"/>
    </filter>
  </defs>

  <rect x="32" y="32" width="448" height="448" rx="96" fill="url(#bg)"/>

  <g filter="url(#shadow)">
    <path fill="#ffffff" d="M256 94 389.5 171.5 389.5 340.5 256 418 122.5 340.5 122.5 171.5Z"/>
  </g>

  <g fill="#198754" opacity="0.95">
    <rect x="198" y="186" width="18" height="150" rx="9"/>
    <rect x="247" y="170" width="18" height="182" rx="9"/>
    <rect x="296" y="186" width="18" height="150" rx="9"/>

    <rect x="192" y="228" width="30" height="10" rx="5"/>
    <rect x="241" y="218" width="30" height="10" rx="5"/>
    <rect x="290" y="228" width="30" height="10" rx="5"/>

    <rect x="192" y="288" width="30" height="10" rx="5"/>
    <rect x="241" y="296" width="30" height="10" rx="5"/>
    <rect x="290" y="288" width="30" height="10" rx="5"/>
  </g>
</svg>

